<?xml version="1.0" encoding="UTF-8"?>
<svg id="Warstwa_1" data-name="Warstwa 1" xmlns="http://www.w3.org/2000/svg" viewBox="0 0 1115.96 210.49">
  <defs>
    <style>
      .cls-1 {
        fill: #fff;
      }

      .cls-2 {
        fill: #f7971d;
      }
    </style>
  </defs>
  <g>
    <path class="cls-1" d="M8.23,72.43c5.48-9.61,12.97-17.1,22.47-22.47,9.49-5.37,20.14-8.05,31.93-8.05,13.8,0,25.89,3.54,36.27,10.61,10.38,7.08,17.63,16.87,21.76,29.37h-28.48c-2.83-5.9-6.81-10.32-11.94-13.27-5.13-2.95-11.06-4.42-17.78-4.42-7.2,0-13.59,1.68-19.2,5.04-5.6,3.36-9.97,8.11-13.09,14.24-3.13,6.13-4.69,13.33-4.69,21.58s1.56,15.3,4.69,21.5c3.12,6.19,7.49,10.97,13.09,14.33,5.6,3.36,12,5.04,19.2,5.04,6.72,0,12.65-1.5,17.78-4.51s9.11-7.46,11.94-13.36h28.48c-4.13,12.62-11.35,22.44-21.67,29.46-10.32,7.02-22.44,10.53-36.35,10.53-11.8,0-22.44-2.68-31.93-8.05-9.5-5.36-16.98-12.83-22.47-22.38C2.74,128.06,0,117.21,0,105.07s2.74-23.03,8.23-32.64Z"/>
    <path class="cls-1" d="M159.93,162.3c-7.55-4.19-13.48-10.11-17.78-17.78-4.31-7.66-6.46-16.51-6.46-26.54s2.21-18.87,6.63-26.54c4.42-7.66,10.47-13.59,18.13-17.78,7.66-4.18,16.22-6.28,25.65-6.28s17.98,2.1,25.65,6.28c7.66,4.19,13.71,10.11,18.13,17.78,4.42,7.67,6.63,16.51,6.63,26.54s-2.27,18.87-6.81,26.54c-4.54,7.67-10.68,13.59-18.4,17.78-7.73,4.19-16.36,6.28-25.92,6.28s-17.93-2.09-25.48-6.28ZM198.05,143.72c3.95-2.18,7.1-5.45,9.46-9.82,2.36-4.36,3.54-9.67,3.54-15.92,0-9.32-2.45-16.48-7.34-21.49-4.9-5.01-10.88-7.52-17.96-7.52s-13,2.51-17.78,7.52c-4.78,5.01-7.17,12.18-7.17,21.49s2.33,16.48,6.99,21.49c4.66,5.01,10.53,7.52,17.6,7.52,4.48,0,8.7-1.09,12.65-3.27Z"/>
    <path class="cls-1" d="M337.36,78.62c7.19,7.37,10.79,17.66,10.79,30.87v57.5h-24.77v-54.13c0-7.78-1.95-13.77-5.84-17.96-3.89-4.18-9.2-6.28-15.92-6.28s-12.24,2.1-16.19,6.28c-3.95,4.19-5.93,10.17-5.93,17.96v54.13h-24.77v-98.01h24.77v12.21c3.3-4.25,7.52-7.58,12.65-9.99,5.13-2.42,10.76-3.63,16.89-3.63,11.68,0,21.11,3.69,28.31,11.06Z"/>
    <path class="cls-1" d="M412.55,144.16l24.77-75.19h26.36l-36.27,98.01h-30.07l-36.09-98.01h26.54l24.77,75.19Z"/>
    <path class="cls-1" d="M568.05,125.41h-71.65c.59,7.08,3.07,12.62,7.43,16.63,4.36,4.01,9.73,6.01,16.1,6.01,9.2,0,15.74-3.95,19.64-11.85h26.71c-2.83,9.44-8.26,17.19-16.28,23.26-8.02,6.08-17.87,9.11-29.54,9.11-9.44,0-17.9-2.09-25.39-6.28-7.49-4.19-13.33-10.11-17.51-17.78-4.19-7.66-6.28-16.51-6.28-26.54s2.06-19.05,6.19-26.71c4.13-7.66,9.91-13.56,17.34-17.69,7.43-4.13,15.98-6.19,25.65-6.19s17.66,2.01,25.03,6.02c7.37,4.01,13.09,9.7,17.16,17.07,4.07,7.37,6.1,15.83,6.1,25.39,0,3.54-.24,6.72-.71,9.55ZM543.11,108.78c-.12-6.37-2.42-11.47-6.9-15.3-4.48-3.83-9.97-5.75-16.45-5.75-6.13,0-11.29,1.86-15.48,5.57-4.19,3.71-6.75,8.88-7.7,15.48h46.53Z"/>
    <path class="cls-1" d="M624.04,71.98c5.13-2.95,10.99-4.42,17.6-4.42v26.01h-6.54c-7.78,0-13.65,1.83-17.6,5.48-3.95,3.66-5.93,10.03-5.93,19.11v48.83h-24.77v-98.01h24.77v15.21c3.18-5.19,7.34-9.26,12.47-12.21Z"/>
    <path class="cls-1" d="M687.11,89.32v47.41c0,3.3.8,5.69,2.39,7.16,1.59,1.48,4.27,2.21,8.05,2.21h11.5v20.88h-15.57c-20.88,0-31.31-10.14-31.31-30.43v-47.23h-11.68v-20.34h11.68v-24.24h24.94v24.24h21.94v20.34h-21.94Z"/>
  </g>
  <g>
    <rect class="cls-2" x="738.56" width="377.4" height="210.49" rx="18.55" ry="18.55"/>
    <g>
      <path d="M795.64,164.07c-6.9-2.95-12.36-7.19-16.36-12.74-4.01-5.54-6.07-12.09-6.19-19.64h26.54c.35,5.07,2.15,9.08,5.4,12.03,3.24,2.95,7.69,4.42,13.36,4.42s10.32-1.38,13.62-4.16c3.3-2.77,4.95-6.4,4.95-10.88,0-3.65-1.12-6.66-3.36-9.02-2.24-2.36-5.04-4.22-8.4-5.57-3.36-1.35-7.99-2.86-13.89-4.51-8.02-2.36-14.54-4.69-19.55-6.99-5.01-2.3-9.32-5.78-12.92-10.44-3.6-4.66-5.39-10.88-5.39-18.67,0-7.31,1.83-13.68,5.48-19.11,3.65-5.42,8.78-9.58,15.39-12.47,6.6-2.89,14.15-4.33,22.65-4.33,12.74,0,23.09,3.1,31.05,9.29s12.35,14.83,13.18,25.92h-27.24c-.24-4.25-2.04-7.75-5.4-10.53-3.36-2.77-7.81-4.16-13.36-4.16-4.84,0-8.7,1.24-11.59,3.71-2.89,2.48-4.33,6.08-4.33,10.79,0,3.3,1.09,6.05,3.27,8.23,2.18,2.18,4.89,3.95,8.14,5.31,3.24,1.36,7.81,2.92,13.71,4.69,8.02,2.36,14.57,4.72,19.64,7.08,5.07,2.36,9.44,5.9,13.09,10.61,3.66,4.72,5.48,10.91,5.48,18.58,0,6.61-1.71,12.74-5.13,18.4-3.42,5.66-8.43,10.17-15.04,13.53-6.61,3.36-14.45,5.04-23.53,5.04-8.61,0-16.36-1.47-23.26-4.42Z"/>
      <path d="M947.7,167.25l-27.24-48.12h-11.68v48.12h-24.77V43.77h46.35c9.55,0,17.69,1.68,24.41,5.04,6.72,3.36,11.77,7.9,15.13,13.62,3.36,5.72,5.04,12.12,5.04,19.2,0,8.14-2.36,15.48-7.08,22.03-4.72,6.54-11.74,11.06-21.05,13.53l29.54,50.06h-28.66ZM908.78,100.56h20.7c6.72,0,11.73-1.62,15.04-4.87,3.3-3.24,4.95-7.75,4.95-13.53s-1.65-10.05-4.95-13.18c-3.3-3.12-8.31-4.69-15.04-4.69h-20.7v36.27Z"/>
      <path d="M1081.44,43.77v19.99h-32.9v103.49h-24.77V63.76h-32.91v-19.99h90.58Z"/>
    </g>
  </g>
</svg>